<svg width="18" height="31" viewBox="0 0 18 31" fill="none" xmlns="http://www.w3.org/2000/svg">
<g clip-path="url(#clip0_106_1771)">
<path d="M15.9216 0H2.07838C0.93212 0 0 0.953054 0 2.12505V28.8749C0 30.0469 0.93212 31 2.07838 31H15.9216C17.0679 31 18 30.0469 18 28.8749V2.12505C18 0.953054 17.0679 0 15.9216 0ZM6.68859 1.18488H11.3114V1.77732H6.68859V1.18488ZM16.4507 27.9477C16.4507 28.7462 15.8209 29.403 15.0273 29.403H2.96011C2.17915 29.403 1.54934 28.7462 1.54934 27.9477V4.26298C1.54934 3.46448 2.17915 2.82052 2.96011 2.82052H15.0273C15.8209 2.82052 16.4507 3.46448 16.4507 4.26298V27.9477ZM6.68859 27.1491H11.3114V27.7416H6.68859V27.1491Z" fill="#3061E7"/>
</g>
<defs>
<clipPath id="clip0_106_1771">
<rect width="18" height="31" fill="white"/>
</clipPath>
</defs>
</svg>
