<svg width="31" height="31" viewBox="0 0 31 31" fill="none" xmlns="http://www.w3.org/2000/svg">
<path d="M14 0.866026C14.9282 0.330127 16.0718 0.330127 17 0.866025L27.4234 6.88397C28.3516 7.41987 28.9234 8.41025 28.9234 9.48205V21.5179C28.9234 22.5897 28.3516 23.5801 27.4234 24.116L17 30.134C16.0718 30.6699 14.9282 30.6699 14 30.134L3.57661 24.116C2.6484 23.5801 2.07661 22.5897 2.07661 21.5179V9.48205C2.07661 8.41025 2.6484 7.41987 3.57661 6.88397L14 0.866026Z" fill="#5F7DFF"/>
<path d="M14.9875 16.3122L9.7207 11.0397C9.80957 11.0138 9.90358 11 10.0007 11H20.5394C20.6432 11 20.7436 11.0158 20.8378 11.0455L15.5767 16.3122C15.4141 16.4747 15.1499 16.4747 14.9875 16.3122Z" fill="black"/>
<path d="M21.5388 12.0003V19.4589C21.5388 20.0119 21.0911 20.46 20.5387 20.46H10.0001C9.44771 20.46 9 20.0119 9 19.4589V12.0003C9 11.9131 9.01106 11.8285 9.03199 11.748L14.2886 17.0102C14.5623 17.2842 14.9219 17.4212 15.2813 17.4212C15.6408 17.4212 16.0004 17.2842 16.2741 17.0102L21.5115 11.7672C21.5293 11.842 21.5388 11.92 21.5388 12.0003Z" fill="black"/>
</svg>
