<svg width="31" height="31" viewBox="0 0 31 31" fill="none" xmlns="http://www.w3.org/2000/svg">
<path d="M14 0.866026C14.9282 0.330127 16.0718 0.330127 17 0.866025L27.4234 6.88397C28.3516 7.41987 28.9234 8.41025 28.9234 9.48205V21.5179C28.9234 22.5897 28.3516 23.5801 27.4234 24.116L17 30.134C16.0718 30.6699 14.9282 30.6699 14 30.134L3.57661 24.116C2.6484 23.5801 2.07661 22.5897 2.07661 21.5179V9.48205C2.07661 8.41025 2.6484 7.41987 3.57661 6.88397L14 0.866026Z" fill="#5F7DFF"/>
<path d="M18.0176 18.2085V21.842H13.6519V18.2085C13.6519 17.0036 14.6311 16.0234 15.8348 16.0234C17.0385 16.0234 18.0176 17.0036 18.0176 18.2085Z" fill="black"/>
<path d="M21.6675 13.5113V20.9097C21.6675 21.4242 21.2509 21.8413 20.7369 21.8413H18.8303V18.2078C18.8303 16.5538 17.4861 15.2082 15.8339 15.2082C14.1816 15.2082 12.8372 16.5538 12.8372 18.2078V21.8413H10.9306C10.4166 21.8413 10 21.4242 10 20.9097V13.5113C10 13.2136 10.1421 12.934 10.3822 12.7587L15.2855 9.17881C15.6122 8.9404 16.0555 8.9404 16.3822 9.17881L21.2853 12.7587C21.5255 12.934 21.6675 13.2136 21.6675 13.5113Z" fill="black"/>
</svg>
