<svg width="31" height="31" viewBox="0 0 31 31" fill="none" xmlns="http://www.w3.org/2000/svg">
<path d="M14 0.866026C14.9282 0.330127 16.0718 0.330127 17 0.866025L27.4234 6.88397C28.3516 7.41987 28.9234 8.41025 28.9234 9.48205V21.5179C28.9234 22.5897 28.3516 23.5801 27.4234 24.116L17 30.134C16.0718 30.6699 14.9282 30.6699 14 30.134L3.57661 24.116C2.6484 23.5801 2.07661 22.5897 2.07661 21.5179V9.48205C2.07661 8.41025 2.6484 7.41987 3.57661 6.88397L14 0.866026Z" fill="#5F7DFF"/>
<path d="M19.0619 8H11.9381C11.42 8 11 8.41367 11 8.92392V21.3261C11 21.8363 11.42 22.25 11.9381 22.25H19.0619C19.58 22.25 20 21.8363 20 21.3261V8.92392C20 8.41367 19.58 8 19.0619 8ZM15.5008 21.281C15.1396 21.281 14.8455 20.9913 14.8455 20.6355C14.8455 20.2798 15.1396 19.9901 15.5008 19.9901C15.862 19.9901 16.1562 20.2798 16.1562 20.6355C16.1562 20.9913 15.862 21.281 15.5008 21.281ZM16.6938 9.15249H14.3062V8.79676H16.6938V9.15249Z" fill="black"/>
</svg>
