<svg width="130" height="36" viewBox="0 0 130 36" fill="none" xmlns="http://www.w3.org/2000/svg">
<path d="M18.1528 35.4692C17.9916 35.4692 17.8305 35.4277 17.6856 35.3448L7.40471 29.4468C6.95526 29.1891 6.80023 28.6159 7.05794 28.1665C7.31564 27.717 7.88884 27.562 8.33829 27.8197L18.1514 33.4491L22.5854 30.8897L31.4724 25.7846L31.3364 17.2586H29.3904C28.8723 17.2586 28.4521 16.8384 28.4521 16.3203V14.3097H26.5822V16.3203C26.5822 16.8384 26.162 17.2586 25.6438 17.2586H23.6726V18.9293H25.6438C26.162 18.9293 26.5822 19.3495 26.5822 19.8676V25.6853C26.5822 26.2035 26.162 26.6237 25.6438 26.6237H19.8261C19.308 26.6237 18.8878 26.2035 18.8878 25.6853V23.6747H17.0179V25.6853C17.0179 26.2035 16.5977 26.6237 16.0796 26.6237H10.3013C9.7832 26.6237 9.36299 26.2035 9.36299 25.6853V23.6747H7.6529V25.6853C7.6529 26.2035 7.23269 26.6237 6.71456 26.6237H0.938338C0.420212 26.6237 0 26.2035 0 25.6853V19.8676C0 19.3495 0.420212 18.9293 0.938338 18.9293H2.86941V9.30724C2.86941 8.97338 3.04688 8.66536 3.33518 8.49673L17.6802 0.12784C17.9746 -0.0441891 18.3384 -0.0421492 18.6315 0.131239L23.5285 3.03737L27.7884 5.50561L29.1014 6.26172C29.5502 6.5201 29.7045 7.09398 29.4461 7.54275C29.1878 7.99152 28.6139 8.14587 28.1651 7.88749L26.8501 7.13002L22.584 4.6577C22.584 4.6577 22.5786 4.6543 22.5759 4.65294L18.1494 2.0256L4.74609 9.8444V18.9279H6.71728C7.23541 18.9279 7.65562 19.3481 7.65562 19.8663V21.7973H9.36571V19.8663C9.36571 19.3481 9.78592 18.9279 10.304 18.9279H12.2351V17.2573H10.304C9.78592 17.2573 9.36571 16.8371 9.36571 16.3189V10.5012C9.36571 9.98312 9.78592 9.5629 10.304 9.5629H16.0823C16.6004 9.5629 17.0206 9.98312 17.0206 10.5012V12.4323H18.8905V10.5012C18.8905 9.98312 19.3107 9.5629 19.8289 9.5629H25.6466C26.1647 9.5629 26.5849 9.98312 26.5849 10.5012V12.4323H28.4548V10.5012C28.4548 9.98312 28.875 9.5629 29.3931 9.5629H35.2108C35.7289 9.5629 36.1492 9.98312 36.1492 10.5012V16.3189C36.1492 16.8371 35.7289 17.2573 35.2108 17.2573H33.2151L33.3593 26.3068C33.3647 26.6481 33.1845 26.965 32.8888 27.135L23.5244 32.5148L18.6247 35.3434C18.4798 35.427 18.3173 35.4692 18.1555 35.4692H18.1528ZM20.7652 24.7463H24.7069V20.8046H20.7652V24.7463ZM11.241 24.7463H15.1433V20.8046H11.241V24.7463ZM1.876 24.7463H5.77826V20.8046H1.876V24.7463ZM17.0193 21.798H18.8892V19.8669C18.8892 19.3488 19.3094 18.9286 19.8275 18.9286H21.7987V17.258H19.8275C19.3094 17.258 18.8892 16.8377 18.8892 16.3196V14.309H17.0193V16.3196C17.0193 16.8377 16.5991 17.258 16.0809 17.258H14.1098V18.9286H16.0809C16.5991 18.9286 17.0193 19.3488 17.0193 19.8669V21.798ZM32.2598 15.382H34.2704V11.4403H30.3287V15.382H32.2598ZM22.7357 15.382H24.7069V11.4403H20.7652V15.382H22.7363H22.7357ZM13.1721 15.382H15.1433V11.4403H11.241V15.382H13.1721Z" fill="#292929"/>
<mask id="mask0_500_1449" style="mask-type:luminance" maskUnits="userSpaceOnUse" x="0" y="0" width="37" height="36">
<path d="M18.1528 35.4692C17.9916 35.4692 17.8305 35.4277 17.6856 35.3448L7.40471 29.4468C6.95526 29.1891 6.80023 28.6159 7.05794 28.1665C7.31564 27.717 7.88884 27.562 8.33829 27.8197L18.1514 33.4491L22.5854 30.8897L31.4724 25.7846L31.3364 17.2586H29.3904C28.8723 17.2586 28.4521 16.8384 28.4521 16.3203V14.3097H26.5822V16.3203C26.5822 16.8384 26.162 17.2586 25.6438 17.2586H23.6726V18.9293H25.6438C26.162 18.9293 26.5822 19.3495 26.5822 19.8676V25.6853C26.5822 26.2035 26.162 26.6237 25.6438 26.6237H19.8261C19.308 26.6237 18.8878 26.2035 18.8878 25.6853V23.6747H17.0179V25.6853C17.0179 26.2035 16.5977 26.6237 16.0796 26.6237H10.3013C9.7832 26.6237 9.36299 26.2035 9.36299 25.6853V23.6747H7.6529V25.6853C7.6529 26.2035 7.23269 26.6237 6.71456 26.6237H0.938338C0.420212 26.6237 0 26.2035 0 25.6853V19.8676C0 19.3495 0.420212 18.9293 0.938338 18.9293H2.86941V9.30724C2.86941 8.97338 3.04688 8.66536 3.33518 8.49673L17.6802 0.12784C17.9746 -0.0441891 18.3384 -0.0421492 18.6315 0.131239L23.5285 3.03737L27.7884 5.50561L29.1014 6.26172C29.5502 6.5201 29.7045 7.09398 29.4461 7.54275C29.1878 7.99152 28.6139 8.14587 28.1651 7.88749L26.8501 7.13002L22.584 4.6577C22.584 4.6577 22.5786 4.6543 22.5759 4.65294L18.1494 2.0256L4.74609 9.8444V18.9279H6.71728C7.23541 18.9279 7.65562 19.3481 7.65562 19.8663V21.7973H9.36571V19.8663C9.36571 19.3481 9.78592 18.9279 10.304 18.9279H12.2351V17.2573H10.304C9.78592 17.2573 9.36571 16.8371 9.36571 16.3189V10.5012C9.36571 9.98312 9.78592 9.5629 10.304 9.5629H16.0823C16.6004 9.5629 17.0206 9.98312 17.0206 10.5012V12.4323H18.8905V10.5012C18.8905 9.98312 19.3107 9.5629 19.8289 9.5629H25.6466C26.1647 9.5629 26.5849 9.98312 26.5849 10.5012V12.4323H28.4548V10.5012C28.4548 9.98312 28.875 9.5629 29.3931 9.5629H35.2108C35.7289 9.5629 36.1492 9.98312 36.1492 10.5012V16.3189C36.1492 16.8371 35.7289 17.2573 35.2108 17.2573H33.2151L33.3593 26.3068C33.3647 26.6481 33.1845 26.965 32.8888 27.135L23.5244 32.5148L18.6247 35.3434C18.4798 35.427 18.3173 35.4692 18.1555 35.4692H18.1528ZM20.7652 24.7463H24.7069V20.8046H20.7652V24.7463ZM11.241 24.7463H15.1433V20.8046H11.241V24.7463ZM1.876 24.7463H5.77826V20.8046H1.876V24.7463ZM17.0193 21.798H18.8892V19.8669C18.8892 19.3488 19.3094 18.9286 19.8275 18.9286H21.7987V17.258H19.8275C19.3094 17.258 18.8892 16.8377 18.8892 16.3196V14.309H17.0193V16.3196C17.0193 16.8377 16.5991 17.258 16.0809 17.258H14.1098V18.9286H16.0809C16.5991 18.9286 17.0193 19.3488 17.0193 19.8669V21.798ZM32.2598 15.382H34.2704V11.4403H30.3287V15.382H32.2598ZM22.7357 15.382H24.7069V11.4403H20.7652V15.382H22.7363H22.7357ZM13.1721 15.382H15.1433V11.4403H11.241V15.382H13.1721Z" fill="white"/>
</mask>
<g mask="url(#mask0_500_1449)">
<path d="M38.4855 -0.583984H-2.33899V36.0513H38.4855V-0.583984Z" fill="#292929"/>
</g>
<path d="M51.3168 7.82812L43.1444 26.9634H46.6489L48.9336 21.5455H56.2438L58.6807 26.9634H62.1778L53.6463 7.82812H51.3168ZM54.8329 18.4674H50.2826L52.4721 13.1671L54.8329 18.4674Z" fill="#292929"/>
<path d="M62.2295 26.9963H58.6584L56.2214 21.5784H48.9561L46.6714 26.9963H43.0928L51.2945 7.79297H53.6682L53.677 7.81337L62.2295 26.9963ZM58.7019 26.9283H62.1248L53.624 7.86096H51.3393L43.1962 26.9283H46.6266L48.9112 21.5104H56.2656L58.7026 26.9283H58.7019ZM54.8853 18.5002H50.2324L52.4715 13.0803L54.886 18.5002H54.8853ZM50.3344 18.4322H54.7813L52.4742 13.2523L50.3344 18.4322Z" fill="#292929"/>
<path d="M80.4361 21.5062L68.6525 7.93359H65.9877V26.9642H69.1964V13.5106L80.8754 26.9642H83.6707V7.93359H80.4361V21.5062Z" fill="#292929"/>
<path d="M83.7045 26.997H80.8596L80.8494 26.9855L69.2303 13.6012V26.997H65.9543V7.89844H68.6686L68.6788 7.91L80.4026 21.4139V7.89844H83.7052V26.997H83.7045ZM80.8902 26.929H83.6358V7.96643H80.4693V21.5961L68.636 7.96643H66.0209V26.929H69.1609V13.419L80.8895 26.929H80.8902Z" fill="#292929"/>
<path d="M104.043 21.5042L92.259 7.93164H89.5942V26.9622H92.8023V13.5086L104.481 26.9622H107.276V7.93164H104.043V21.5042Z" fill="#292929"/>
<path d="M107.31 26.997H104.465L104.455 26.9855L92.8362 13.6012V26.997H89.5602V7.89844H92.2746L92.2848 7.91L104.009 21.4139V7.89844H107.311V26.997H107.31ZM104.497 26.929H107.243V7.96643H104.077V21.5961L92.2433 7.96643H89.6282V26.929H92.7682V13.419L104.497 26.929Z" fill="#292929"/>
<path d="M121.415 7.82812H119.086L110.913 26.9634H114.418L116.703 21.5455H124.013L126.449 26.9634H129.946L121.415 7.82812H121.415ZM122.603 18.4674H118.053L120.242 13.1671L122.603 18.4674Z" fill="#292929"/>
<path d="M129.999 26.9963H126.428L123.992 21.5784H116.726L114.442 26.9963H110.863L119.065 7.79297H121.439L121.447 7.81337L130 26.9963H129.999ZM126.472 26.9283H129.894L121.394 7.86096H119.109L110.966 26.9283H114.396L116.681 21.5104H124.035L126.472 26.9283ZM122.656 18.5002H118.003L120.242 13.0803L122.656 18.5002H122.656ZM118.104 18.4322H122.551L120.244 13.2523L118.104 18.4322Z" fill="#292929"/>
</svg>
