<svg width="333" height="91" viewBox="0 0 333 91" fill="none" xmlns="http://www.w3.org/2000/svg">
<path d="M46.4991 90.8559C46.0863 90.8559 45.6735 90.7497 45.3025 90.5372L18.9675 75.4294C17.8162 74.7692 17.4191 73.301 18.0792 72.1497C18.7393 70.9984 20.2076 70.6013 21.3589 71.2614L46.4956 85.6812L57.8535 79.1253L80.6179 66.0484L80.2696 44.2087H75.2848C73.9576 44.2087 72.8812 43.1324 72.8812 41.8052V36.6548H68.0914V41.8052C68.0914 43.1324 67.015 44.2087 65.6878 44.2087H60.6385V48.4882H65.6878C67.015 48.4882 68.0914 49.5646 68.0914 50.8918V65.7941C68.0914 67.1213 67.015 68.1977 65.6878 68.1977H50.7855C49.4583 68.1977 48.3819 67.1213 48.3819 65.7941V60.6438H43.5921V65.7941C43.5921 67.1213 42.5158 68.1977 41.1885 68.1977H26.3873C25.0601 68.1977 23.9837 67.1213 23.9837 65.7941V60.6438H19.6032V65.7941C19.6032 67.1213 18.5268 68.1977 17.1996 68.1977H2.40359C1.07639 68.1977 0 67.1213 0 65.7941V50.8918C0 49.5646 1.07639 48.4882 2.40359 48.4882H7.35012V23.8409C7.35012 22.9857 7.80471 22.1967 8.54321 21.7647L45.2886 0.327467C46.0428 -0.113192 46.9746 -0.107967 47.7253 0.336175L60.2693 7.78035L71.1812 14.1029L74.5445 16.0397C75.6941 16.7015 76.0894 18.1715 75.4276 19.3211C74.7657 20.4706 73.2957 20.866 72.1461 20.2041L68.7776 18.2639L57.85 11.9309C57.85 11.9309 57.8361 11.9222 57.8291 11.9187L46.4904 5.18865L12.1573 25.2169V48.4847H17.2066C18.5338 48.4847 19.6102 49.5611 19.6102 50.8883V55.8348H23.9907V50.8883C23.9907 49.5611 25.067 48.4847 26.3943 48.4847H31.3408V44.2053H26.3943C25.067 44.2053 23.9907 43.1289 23.9907 41.8017V26.8994C23.9907 25.5722 25.067 24.4958 26.3943 24.4958H41.1955C42.5227 24.4958 43.5991 25.5722 43.5991 26.8994V31.8459H48.3889V26.8994C48.3889 25.5722 49.4653 24.4958 50.7925 24.4958H65.6948C67.022 24.4958 68.0984 25.5722 68.0984 26.8994V31.8459H72.8881V26.8994C72.8881 25.5722 73.9645 24.4958 75.2917 24.4958H90.194C91.5212 24.4958 92.5976 25.5722 92.5976 26.8994V41.8017C92.5976 43.1289 91.5212 44.2053 90.194 44.2053H85.082L85.4513 67.386C85.4652 68.2604 85.0036 69.072 84.246 69.5075L60.2588 83.2881L47.7079 90.5337C47.3369 90.7479 46.9206 90.8559 46.5061 90.8559H46.4991ZM53.1908 63.3887H63.2877V53.2919H53.1908V63.3887ZM28.7944 63.3887H38.7902V53.2919H28.7944V63.3887ZM4.80545 63.3887H14.8013V53.2919H4.80545V63.3887ZM43.5956 55.8366H48.3854V50.89C48.3854 49.5628 49.4618 48.4865 50.789 48.4865H55.8383V44.207H50.789C49.4618 44.207 48.3854 43.1306 48.3854 41.8034V36.6531H43.5956V41.8034C43.5956 43.1306 42.5192 44.207 41.192 44.207H36.1427V48.4865H41.192C42.5192 48.4865 43.5956 49.5628 43.5956 50.89V55.8366ZM82.6349 39.4016H87.7852V29.3047H77.6884V39.4016H82.6349ZM58.2384 39.4016H63.2877V29.3047H53.1908V39.4016H58.2401H58.2384ZM33.7409 39.4016H38.7902V29.3047H28.7944V39.4016H33.7409Z" fill="white"/>
<mask id="mask0_46_247" style="mask-type:luminance" maskUnits="userSpaceOnUse" x="0" y="0" width="93" height="91">
<path d="M46.4991 90.8559C46.0863 90.8559 45.6735 90.7497 45.3025 90.5372L18.9675 75.4294C17.8162 74.7692 17.4191 73.301 18.0792 72.1497C18.7393 70.9984 20.2076 70.6013 21.3589 71.2614L46.4956 85.6812L57.8535 79.1253L80.6179 66.0484L80.2696 44.2087H75.2848C73.9576 44.2087 72.8812 43.1324 72.8812 41.8052V36.6548H68.0914V41.8052C68.0914 43.1324 67.015 44.2087 65.6878 44.2087H60.6385V48.4882H65.6878C67.015 48.4882 68.0914 49.5646 68.0914 50.8918V65.7941C68.0914 67.1213 67.015 68.1977 65.6878 68.1977H50.7855C49.4583 68.1977 48.3819 67.1213 48.3819 65.7941V60.6438H43.5921V65.7941C43.5921 67.1213 42.5158 68.1977 41.1885 68.1977H26.3873C25.0601 68.1977 23.9837 67.1213 23.9837 65.7941V60.6438H19.6032V65.7941C19.6032 67.1213 18.5268 68.1977 17.1996 68.1977H2.40359C1.07639 68.1977 0 67.1213 0 65.7941V50.8918C0 49.5646 1.07639 48.4882 2.40359 48.4882H7.35012V23.8409C7.35012 22.9857 7.80471 22.1967 8.54321 21.7647L45.2886 0.327467C46.0428 -0.113192 46.9746 -0.107967 47.7253 0.336175L60.2693 7.78035L71.1812 14.1029L74.5445 16.0397C75.6941 16.7015 76.0894 18.1715 75.4276 19.3211C74.7657 20.4706 73.2957 20.866 72.1461 20.2041L68.7776 18.2639L57.85 11.9309C57.85 11.9309 57.8361 11.9222 57.8291 11.9187L46.4904 5.18865L12.1573 25.2169V48.4847H17.2066C18.5338 48.4847 19.6102 49.5611 19.6102 50.8883V55.8348H23.9907V50.8883C23.9907 49.5611 25.067 48.4847 26.3943 48.4847H31.3408V44.2053H26.3943C25.067 44.2053 23.9907 43.1289 23.9907 41.8017V26.8994C23.9907 25.5722 25.067 24.4958 26.3943 24.4958H41.1955C42.5227 24.4958 43.5991 25.5722 43.5991 26.8994V31.8459H48.3889V26.8994C48.3889 25.5722 49.4653 24.4958 50.7925 24.4958H65.6948C67.022 24.4958 68.0984 25.5722 68.0984 26.8994V31.8459H72.8881V26.8994C72.8881 25.5722 73.9645 24.4958 75.2917 24.4958H90.194C91.5212 24.4958 92.5976 25.5722 92.5976 26.8994V41.8017C92.5976 43.1289 91.5212 44.2053 90.194 44.2053H85.082L85.4513 67.386C85.4652 68.2604 85.0036 69.072 84.246 69.5075L60.2588 83.2881L47.7079 90.5337C47.3369 90.7479 46.9206 90.8559 46.5061 90.8559H46.4991ZM53.1908 63.3887H63.2877V53.2919H53.1908V63.3887ZM28.7944 63.3887H38.7902V53.2919H28.7944V63.3887ZM4.80545 63.3887H14.8013V53.2919H4.80545V63.3887ZM43.5956 55.8366H48.3854V50.89C48.3854 49.5628 49.4618 48.4865 50.789 48.4865H55.8383V44.207H50.789C49.4618 44.207 48.3854 43.1306 48.3854 41.8034V36.6531H43.5956V41.8034C43.5956 43.1306 42.5192 44.207 41.192 44.207H36.1427V48.4865H41.192C42.5192 48.4865 43.5956 49.5628 43.5956 50.89V55.8366ZM82.6349 39.4016H87.7852V29.3047H77.6884V39.4016H82.6349ZM58.2384 39.4016H63.2877V29.3047H53.1908V39.4016H58.2401H58.2384ZM33.7409 39.4016H38.7902V29.3047H28.7944V39.4016H33.7409Z" fill="white"/>
</mask>
<g mask="url(#mask0_46_247)">
<path d="M98.5831 -1.49487H-5.99072V92.3481H98.5831V-1.49487Z" fill="white"/>
</g>
<path d="M131.45 20.0493L110.516 69.0652H119.493L125.345 55.1871H144.07L150.313 69.0652H159.271L137.417 20.0493H131.45ZM140.456 47.3022H128.801L134.409 33.7254L140.456 47.3022Z" fill="white"/>
<path d="M159.403 69.1518H150.256L144.013 55.2736H125.403L119.551 69.1518H110.384L131.393 19.9617H137.473L137.496 20.0139L159.403 69.1518ZM150.367 68.9776H159.135L137.36 20.1358H131.508L110.649 68.9776H119.436L125.288 55.0994H144.127L150.369 68.9776H150.367ZM140.591 47.3888H128.672L134.408 33.5054L140.593 47.3888H140.591ZM128.934 47.2146H140.324L134.415 33.9461L128.934 47.2146Z" fill="white"/>
<path d="M206.04 55.0844L175.855 20.3176H169.03V69.0653H177.249V34.6033L207.165 69.0653H214.325V20.3176H206.04V55.0844Z" fill="white"/>
<path d="M214.412 69.1516H207.125L207.099 69.122L177.336 34.8377V69.1516H168.944V20.2297H175.897L175.923 20.2593L205.954 54.8502V20.2297H214.414V69.1516H214.412ZM207.203 68.9774H214.236V20.4039H206.125V55.317L175.813 20.4039H169.115V68.9774H177.158V34.3709L207.201 68.9774H207.203Z" fill="white"/>
<path d="M266.509 55.0837L236.325 20.3169H229.499V69.0646H237.717V34.6026L267.633 69.0646H274.793V20.3169H266.509V55.0837Z" fill="white"/>
<path d="M274.88 69.1516H267.592L267.566 69.122L237.804 34.8377V69.1516H229.412V20.2297H236.365L236.391 20.2593L266.422 54.8502V20.2297H274.882V69.1516H274.88ZM267.673 68.9774H274.707V20.4039H266.596V55.317L236.285 20.4039H229.586V68.9774H237.629V34.3709L267.673 68.9774Z" fill="white"/>
<path d="M311.01 20.0493H305.043L284.109 69.0652H293.086L298.938 55.1871H317.664L323.904 69.0652H332.862L311.009 20.0493H311.01ZM314.053 47.3022H302.397L308.006 33.7254L314.053 47.3022Z" fill="white"/>
<path d="M332.998 69.1518H323.85L317.61 55.2736H298.999L293.147 69.1518H283.98L304.989 19.9617H311.069L311.092 20.0139L333 69.1518H332.998ZM323.962 68.9776H332.73L310.954 20.1358H305.102L284.243 68.9776H293.03L298.883 55.0994H317.721L323.962 68.9776ZM314.187 47.3888H302.268L308.004 33.5054L314.189 47.3888H314.187ZM302.528 47.2146H313.919L308.009 33.9461L302.528 47.2146Z" fill="white"/>
</svg>
