<svg width="482" height="109" viewBox="0 0 482 109" fill="none" xmlns="http://www.w3.org/2000/svg">
<path d="M27.5487 96.9244C22.571 96.9244 18.091 95.8104 14.1087 93.5822C10.1265 91.3541 6.99764 88.2726 4.72208 84.3378C2.49393 80.403 1.37986 75.9941 1.37986 71.1111C1.37986 66.2281 2.49393 61.8193 4.72208 57.8844C6.99764 53.9496 10.1265 50.8681 14.1087 48.64C18.091 46.4118 22.571 45.2978 27.5487 45.2978C32.4791 45.2978 36.9354 46.4118 40.9176 48.64C44.8999 50.8681 48.005 53.9496 50.2332 57.8844C52.5087 61.7719 53.6465 66.1807 53.6465 71.1111C53.6465 76.0415 52.5087 80.4741 50.2332 84.4089C48.005 88.2963 44.8999 91.3541 40.9176 93.5822C36.9354 95.8104 32.4791 96.9244 27.5487 96.9244ZM27.5487 85.8311C30.1087 85.8311 32.408 85.2148 34.4465 83.9822C36.5325 82.7496 38.1443 81.0193 39.2821 78.7911C40.4673 76.563 41.0599 74.003 41.0599 71.1111C41.0599 68.2193 40.4673 65.6593 39.2821 63.4311C38.1443 61.1556 36.5325 59.4015 34.4465 58.1689C32.408 56.9363 30.1087 56.32 27.5487 56.32C24.9413 56.32 22.5947 56.9363 20.5087 58.1689C18.4702 59.4015 16.8584 61.1556 15.6732 63.4311C14.5354 65.6593 13.9665 68.2193 13.9665 71.1111C13.9665 74.003 14.5354 76.563 15.6732 78.7911C16.8584 81.0193 18.4702 82.7496 20.5087 83.9822C22.5947 85.2148 24.9413 85.8311 27.5487 85.8311ZM78.6462 96.9244C71.7722 96.9244 66.4151 94.9333 62.5751 90.9511C58.7351 86.9689 56.8151 81.3037 56.8151 73.9556V46.2222H69.1885V73.4578C69.1885 77.7719 69.9944 80.9244 71.6063 82.9156C73.2655 84.8593 75.6596 85.8311 78.7885 85.8311C81.9174 85.8311 84.2877 84.8593 85.8996 82.9156C87.5114 80.9244 88.3174 77.7719 88.3174 73.4578V46.2222H100.548V73.9556C100.548 81.3037 98.6285 86.9689 94.7885 90.9511C90.9485 94.9333 85.5677 96.9244 78.6462 96.9244ZM127.683 82.7022C127.683 82.6548 127.778 82.6311 127.968 82.6311H119.221V96H106.777V46.2222H127.968C132.187 46.2222 135.861 46.9807 138.99 48.4978C142.119 49.9674 144.537 52.077 146.243 54.8267C147.95 57.5763 148.803 60.8237 148.803 64.5689C148.803 68.1719 147.974 71.3244 146.314 74.0267C144.655 76.7289 142.332 78.8148 139.345 80.2844L149.657 96H136.43L127.683 82.7022ZM127.185 72.2489C130.172 72.2489 132.424 71.5852 133.941 70.2578C135.458 68.883 136.217 66.9867 136.217 64.5689C136.217 62.1037 135.458 60.2074 133.941 58.88C132.424 57.5052 130.172 56.8178 127.185 56.8178H119.221V72.2489H127.185ZM180.786 96.9244C177.041 96.9244 173.39 96.4267 169.835 95.4311C166.279 94.3881 163.411 93.037 161.23 91.3778L165.355 81.5644C167.488 83.0341 169.929 84.243 172.679 85.1911C175.476 86.0919 178.226 86.5422 180.928 86.5422C183.772 86.5422 185.858 86.1393 187.186 85.3333C188.561 84.5274 189.248 83.437 189.248 82.0622C189.248 80.5926 188.466 79.5022 186.901 78.7911C185.384 78.0326 182.966 77.2741 179.648 76.5156C175.95 75.6148 172.94 74.7141 170.617 73.8133C168.341 72.8652 166.35 71.3956 164.643 69.4044C162.937 67.3659 162.083 64.64 162.083 61.2267C162.083 58.24 162.842 55.5378 164.359 53.12C165.923 50.7022 168.246 48.8059 171.328 47.4311C174.409 46.0089 178.178 45.2978 182.635 45.2978C185.763 45.2978 188.774 45.677 191.666 46.4356C194.605 47.1467 197.189 48.2133 199.417 49.6356L195.719 59.52C191.168 56.96 186.759 55.68 182.492 55.68C179.695 55.68 177.633 56.1304 176.306 57.0311C175.026 57.9319 174.386 59.117 174.386 60.5867C174.386 62.0089 175.121 63.0756 176.59 63.7867C178.107 64.4978 180.525 65.2326 183.843 65.9911C187.446 66.797 190.433 67.6741 192.803 68.6222C195.221 69.523 197.283 70.9689 198.99 72.96C200.697 74.9511 201.55 77.6533 201.55 81.0667C201.55 84.0059 200.768 86.6844 199.203 89.1022C197.639 91.4726 195.292 93.3689 192.163 94.7911C189.035 96.2133 185.242 96.9244 180.786 96.9244ZM241.796 96H204.392V46.2222H240.872V56.6044H216.765V65.7067H238.098V75.8044H216.765V85.5467H241.796V96ZM266.878 82.7022C266.878 82.6548 266.973 82.6311 267.163 82.6311H258.416V96H245.972V46.2222H267.163C271.382 46.2222 275.056 46.9807 278.185 48.4978C281.314 49.9674 283.732 52.077 285.438 54.8267C287.145 57.5763 287.998 60.8237 287.998 64.5689C287.998 68.1719 287.169 71.3244 285.509 74.0267C283.85 76.7289 281.527 78.8148 278.54 80.2844L288.852 96H275.625L266.878 82.7022ZM266.38 72.2489C269.367 72.2489 271.619 71.5852 273.136 70.2578C274.653 68.883 275.412 66.9867 275.412 64.5689C275.412 62.1037 274.653 60.2074 273.136 58.88C271.619 57.5052 269.367 56.8178 266.38 56.8178H258.416V72.2489H266.38ZM318.363 96H306.06L285.794 46.2222H299.234L312.674 79.9289L326.398 46.2222H338.7L318.363 96ZM351.283 46.2222V96H338.91V46.2222H351.283ZM380.601 96.9244C375.718 96.9244 371.309 95.8341 367.374 93.6533C363.439 91.4252 360.358 88.3437 358.13 84.4089C355.901 80.4741 354.787 76.0415 354.787 71.1111C354.787 66.1807 355.901 61.7481 358.13 57.8133C360.405 53.8785 363.51 50.8207 367.445 48.64C371.38 46.4118 375.789 45.2978 380.672 45.2978C384.891 45.2978 388.707 46.1037 392.121 47.7156C395.581 49.28 398.426 51.5319 400.654 54.4711L392.69 62.1511C389.608 58.2637 385.816 56.32 381.312 56.32C378.61 56.32 376.192 56.9363 374.058 58.1689C371.973 59.4015 370.337 61.1556 369.152 63.4311C367.967 65.6593 367.374 68.2193 367.374 71.1111C367.374 74.003 367.967 76.563 369.152 78.7911C370.337 81.0193 371.973 82.7496 374.058 83.9822C376.192 85.2148 378.61 85.8311 381.312 85.8311C385.863 85.8311 389.656 83.8874 392.69 80L400.654 87.68C398.426 90.6667 395.581 92.9659 392.121 94.5778C388.707 96.1422 384.867 96.9244 380.601 96.9244ZM440.821 96H403.417V46.2222H439.897V56.6044H415.79V65.7067H437.123V75.8044H415.79V85.5467H440.821V96ZM460.783 96.9244C457.038 96.9244 453.388 96.4267 449.832 95.4311C446.277 94.3881 443.408 93.037 441.228 91.3778L445.352 81.5644C447.485 83.0341 449.927 84.243 452.677 85.1911C455.474 86.0919 458.223 86.5422 460.925 86.5422C463.77 86.5422 465.856 86.1393 467.183 85.3333C468.558 84.5274 469.245 83.437 469.245 82.0622C469.245 80.5926 468.463 79.5022 466.899 78.7911C465.382 78.0326 462.964 77.2741 459.645 76.5156C455.948 75.6148 452.937 74.7141 450.614 73.8133C448.339 72.8652 446.348 71.3956 444.641 69.4044C442.934 67.3659 442.081 64.64 442.081 61.2267C442.081 58.24 442.839 55.5378 444.357 53.12C445.921 50.7022 448.244 48.8059 451.325 47.4311C454.407 46.0089 458.176 45.2978 462.632 45.2978C465.761 45.2978 468.771 45.677 471.663 46.4356C474.602 47.1467 477.186 48.2133 479.414 49.6356L475.717 59.52C471.165 56.96 466.757 55.68 462.49 55.68C459.693 55.68 457.631 56.1304 456.303 57.0311C455.023 57.9319 454.383 59.117 454.383 60.5867C454.383 62.0089 455.118 63.0756 456.588 63.7867C458.105 64.4978 460.522 65.2326 463.841 65.9911C467.444 66.797 470.431 67.6741 472.801 68.6222C475.219 69.523 477.281 70.9689 478.988 72.96C480.694 74.9511 481.548 77.6533 481.548 81.0667C481.548 84.0059 480.765 86.6844 479.201 89.1022C477.637 91.4726 475.29 93.3689 472.161 94.7911C469.032 96.2133 465.239 96.9244 460.783 96.9244Z" fill="white"/>
<path d="M185.577 19L184.004 23H179.791L187.711 4.33333H191.764L199.684 23H195.391L193.817 19H185.577ZM189.711 8.57333L186.884 15.72H192.511L189.711 8.57333ZM216.293 23H212.907L204.08 11.6667V23H200.027V4.33333H203.413L212.24 15.6667V4.33333H216.293V23ZM235.261 23H231.874L223.048 11.6667V23H218.994V4.33333H222.381L231.208 15.6667V4.33333H235.261V23ZM241.402 19L239.828 23H235.615L243.535 4.33333H247.588L255.508 23H251.215L249.642 19H241.402ZM245.535 8.57333L242.708 15.72H248.335L245.535 8.57333ZM262.245 6.65333C261.516 6.65333 260.92 6.43111 260.458 5.98667C259.996 5.54222 259.765 4.99111 259.765 4.33333C259.765 3.67556 259.996 3.12444 260.458 2.68C260.92 2.23555 261.516 2.01333 262.245 2.01333C262.974 2.01333 263.56 2.22667 264.005 2.65333C264.467 3.08 264.698 3.61333 264.698 4.25333C264.698 4.94667 264.467 5.52444 264.005 5.98667C263.56 6.43111 262.974 6.65333 262.245 6.65333ZM264.218 8.65333V23H260.245V8.65333H264.218ZM274.92 8.44C276.626 8.44 277.995 8.97333 279.026 10.04C280.057 11.1067 280.573 12.6889 280.573 14.7867V23H276.626V15.4267C276.626 14.2889 276.386 13.4444 275.906 12.8933C275.426 12.3244 274.742 12.04 273.853 12.04C272.857 12.04 272.066 12.3689 271.48 13.0267C270.893 13.6667 270.6 14.6267 270.6 15.9067V23H266.626V8.65333H270.413V10.3333C270.946 9.72889 271.595 9.26667 272.36 8.94667C273.142 8.60889 273.995 8.44 274.92 8.44ZM289.462 23.2133C288.004 23.2133 286.697 22.9022 285.542 22.28C284.386 21.64 283.479 20.76 282.822 19.64C282.182 18.52 281.862 17.2489 281.862 15.8267C281.862 14.4044 282.182 13.1333 282.822 12.0133C283.479 10.8933 284.386 10.0222 285.542 9.4C286.697 8.76 288.004 8.44 289.462 8.44C290.902 8.44 292.155 8.76 293.222 9.4C294.288 10.0222 295.071 10.92 295.568 12.0933L292.502 13.8267C291.808 12.5111 290.786 11.8533 289.435 11.8533C288.404 11.8533 287.55 12.2089 286.875 12.92C286.217 13.6311 285.888 14.6 285.888 15.8267C285.888 17.0533 286.217 18.0222 286.875 18.7333C287.55 19.4444 288.404 19.8 289.435 19.8C290.804 19.8 291.826 19.1422 292.502 17.8267L295.568 19.5867C295.071 20.7422 294.288 21.64 293.222 22.28C292.155 22.9022 290.902 23.2133 289.462 23.2133ZM299.078 23.2133C298.349 23.2133 297.736 22.9644 297.238 22.4667C296.74 21.9689 296.492 21.3467 296.492 20.6C296.492 19.8356 296.74 19.2222 297.238 18.76C297.736 18.28 298.349 18.04 299.078 18.04C299.807 18.04 300.42 18.28 300.918 18.76C301.416 19.2222 301.665 19.8356 301.665 20.6C301.665 21.3467 301.416 21.9689 300.918 22.4667C300.42 22.9644 299.807 23.2133 299.078 23.2133Z" fill="#5F7DFF"/>
</svg>
